<svg width="33" height="32" viewBox="0 0 33 32" fill="none" xmlns="http://www.w3.org/2000/svg">
<path d="M15.5417 17.5856C18.2037 17.5856 20.3617 15.4366 20.3617 12.7856C20.3617 10.1346 18.2037 7.9856 15.5417 7.9856C12.8797 7.9856 10.7217 10.1346 10.7217 12.7856C10.7217 15.4366 12.8797 17.5856 15.5417 17.5856Z" stroke="black" stroke-width="2" stroke-miterlimit="10"/>
<path d="M28.8972 16.3855C28.9105 18.1358 28.5742 19.8713 27.9078 21.4909C27.2413 23.1106 26.2581 24.582 25.0152 25.8197C23.7724 27.0574 22.2948 28.0366 20.6684 28.7002C19.042 29.3639 17.2993 29.6988 15.5417 29.6855H15.3409C13.7358 29.654 12.1884 29.0839 10.9492 28.0676C9.70996 27.0513 8.85142 25.6482 8.51257 24.0855C7.98993 21.9482 7.03303 19.9403 5.7009 18.1855C4.29371 16.195 3.73607 13.7302 4.15014 11.331C4.56422 8.93188 5.91625 6.79396 7.91007 5.38555C9.91866 3.99268 12.273 3.17625 14.7159 3.02547C17.1588 2.8747 19.5963 3.39537 21.7623 4.5306C23.9282 5.66583 25.7392 7.37196 26.9975 9.46264C28.2557 11.5533 28.9129 13.9482 28.8972 16.3855Z" stroke="black" stroke-width="2" stroke-miterlimit="10"/>
</svg>
