<svg width="33" height="32" viewBox="0 0 33 32" fill="none" xmlns="http://www.w3.org/2000/svg">
<path d="M10.4858 12.8981C10.8183 12.2053 11.2856 11.5852 11.8606 11.0736C12.4356 10.5621 13.1069 10.1694 13.8356 9.9182C14.5642 9.66703 15.3356 9.56244 16.1051 9.61049C16.8746 9.65853 17.6269 9.85825 18.3183 10.1981" stroke="black" stroke-width="2" stroke-miterlimit="10" stroke-linecap="round"/>
<path d="M17.0129 6.99804C17.4933 5.59322 18.4876 4.42029 19.7978 3.71306C21.1079 3.00583 22.6375 2.81625 24.0818 3.18212C25.526 3.54799 26.7788 4.44242 27.5903 5.68712C28.4018 6.93183 28.7124 8.43537 28.4603 9.89803C28.2121 10.9681 27.6534 11.9418 26.8537 12.698H26.9541L12.9962 26.398H13.0966C12.0577 27.4181 10.6774 28.0206 9.22011 28.09C7.76283 28.1594 6.33103 27.6909 5.1991 26.7743C4.06716 25.8576 3.31472 24.5572 3.08583 23.1223C2.85695 21.6874 3.16775 20.2189 3.95872 18.998C4.38385 18.3571 4.93254 17.8067 5.57302 17.3787C6.21351 16.9506 6.93301 16.6536 7.68972 16.5047C8.44642 16.3559 9.22529 16.3582 9.98108 16.5116C10.7369 16.6649 11.4545 16.9662 12.0924 17.398" stroke="black" stroke-width="2" stroke-linecap="round" stroke-linejoin="round"/>
</svg>
