<svg width="33" height="32" viewBox="0 0 33 32" fill="none" xmlns="http://www.w3.org/2000/svg">
<path d="M2.0083 16H29.5225V18.6C29.5225 21.1726 28.4963 23.6399 26.6696 25.459C24.8429 27.2781 22.3654 28.3 19.7821 28.3H11.7487C9.16541 28.3 6.68789 27.2781 4.8612 25.459C3.03452 23.6399 2.0083 21.1726 2.0083 18.6V16Z" stroke="black" stroke-width="2" stroke-linecap="round" stroke-linejoin="round"/>
<path d="M2.91211 4.30005H3.31374C5.15136 4.30005 6.9137 5.02701 8.2131 6.32101C9.51249 7.61502 10.2425 9.37005 10.2425 11.2H9.84082C8.0032 11.2 6.24086 10.4731 4.94147 9.17908C3.64207 7.88508 2.91211 6.13004 2.91211 4.30005Z" stroke="black" stroke-width="2" stroke-linejoin="round"/>
<path d="M13.0542 6.20001C13.2176 5.30808 13.6879 4.50069 14.3843 3.91669C15.0807 3.33268 15.9596 3.00853 16.87 3C17.9007 3.02535 18.8821 3.44441 19.6111 4.17038C20.3401 4.89635 20.7608 5.87366 20.7863 6.90002C20.7686 7.30667 20.7012 7.70964 20.5854 8.10001L21.7905 7.90002C22.8211 7.92538 23.8025 8.3444 24.5314 9.07037C25.2604 9.79634 25.6812 10.7737 25.7067 11.8" stroke="black" stroke-width="2" stroke-linecap="round" stroke-linejoin="round"/>
<path d="M20.3846 12.1001C19.3193 12.1001 18.2976 11.6787 17.5444 10.9285C16.7911 10.1784 16.3679 9.16096 16.3679 8.1001" stroke="black" stroke-width="2" stroke-linecap="round" stroke-linejoin="round"/>
</svg>
