<svg width="33" height="32" viewBox="0 0 33 32" fill="none" xmlns="http://www.w3.org/2000/svg">
<path fill-rule="evenodd" clip-rule="evenodd" d="M16.7252 12.9232C13.7976 12.9232 9.78989 13.1521 7.32755 13.3139C6.53231 13.3661 5.90278 13.9673 5.81689 14.7426C5.63906 16.3478 5.44313 18.4902 5.44313 20.1026C5.44313 21.7151 5.63906 23.8575 5.81689 25.4627C5.90278 26.238 6.53231 26.8392 7.32755 26.8914C9.7899 27.0532 13.7976 27.2821 16.7252 27.2821C19.6528 27.2821 23.6605 27.0532 26.1228 26.8914C26.918 26.8392 27.5476 26.238 27.6335 25.4627C27.8113 23.8575 28.0072 21.7151 28.0072 20.1026C28.0072 18.4902 27.8113 16.3478 27.6335 14.7426C27.5476 13.9673 26.918 13.3661 26.1228 13.3139C23.6605 13.1521 19.6528 12.9232 16.7252 12.9232ZM7.19309 11.267C9.65617 11.1052 13.7235 10.8719 16.7252 10.8719C19.7268 10.8719 23.7942 11.1052 26.2573 11.267C28.0278 11.3833 29.475 12.7363 29.6723 14.5167C29.851 16.1304 30.0585 18.3689 30.0585 20.1026C30.0585 21.8364 29.851 24.0749 29.6723 25.6886C29.475 27.469 28.0278 28.822 26.2573 28.9383C23.7942 29.1001 19.7268 29.3334 16.7252 29.3334C13.7235 29.3334 9.65617 29.1001 7.19309 28.9383C5.42257 28.822 3.97532 27.469 3.77808 25.6886C3.59931 24.0749 3.39185 21.8364 3.39185 20.1026C3.39185 18.3689 3.59931 16.1304 3.77808 14.5167C3.97532 12.7363 5.42257 11.3833 7.19309 11.267Z" fill="#030D45"/>
<path fill-rule="evenodd" clip-rule="evenodd" d="M16.7252 8.82059C14.5912 8.82059 11.7225 8.9209 9.7917 9.00013C9.01027 9.0322 8.4078 9.57945 8.31339 10.2725C8.23418 10.854 8.17817 11.4355 8.17817 11.8975C8.17817 12.464 7.71898 12.9232 7.15253 12.9232C6.58608 12.9232 6.12689 12.464 6.12689 11.8975C6.12689 11.2987 6.19704 10.6111 6.28088 9.99567C6.52044 8.23694 8.01664 7.01996 9.70759 6.95057C11.6402 6.87126 14.5455 6.76931 16.7252 6.76931C18.9049 6.76931 21.8102 6.87126 23.7428 6.95057C25.4337 7.01996 26.9299 8.23694 27.1695 9.99567C27.2533 10.6111 27.3235 11.2987 27.3235 11.8975C27.3235 12.464 26.8643 12.9232 26.2978 12.9232C25.7314 12.9232 25.2722 12.464 25.2722 11.8975C25.2722 11.4355 25.2162 10.854 25.137 10.2725C25.0426 9.57945 24.4401 9.0322 23.6587 9.00013C21.7279 8.92089 18.8592 8.82059 16.7252 8.82059Z" fill="#030D45"/>
<path fill-rule="evenodd" clip-rule="evenodd" d="M16.7252 4.71803C15.4518 4.71803 13.7997 4.78899 12.4824 4.85906C11.6866 4.90138 11.0717 5.49124 11.0021 6.23063C10.95 6.78535 10.9132 7.34154 10.9132 7.79495C10.9132 8.3614 10.454 8.82059 9.88757 8.82059C9.32113 8.82059 8.86193 8.3614 8.86193 7.79495C8.86193 7.24816 8.90527 6.61923 8.95986 6.0386C9.12962 4.2332 10.6168 2.9041 12.3735 2.81067C13.6969 2.74028 15.3943 2.66675 16.7252 2.66675C18.056 2.66675 19.7534 2.74028 21.0769 2.81067C22.8335 2.9041 24.3207 4.2332 24.4905 6.0386C24.5451 6.61923 24.5884 7.24816 24.5884 7.79495C24.5884 8.3614 24.1292 8.82059 23.5628 8.82059C22.9963 8.82059 22.5371 8.3614 22.5371 7.79495C22.5371 7.34154 22.5004 6.78535 22.4482 6.23063C22.3787 5.49124 21.7637 4.90138 20.9679 4.85906C19.6507 4.78899 17.9986 4.71803 16.7252 4.71803Z" fill="#030D45"/>
<path fill-rule="evenodd" clip-rule="evenodd" d="M12.9645 20.1026C12.9645 19.5362 13.4237 19.077 13.9901 19.077H19.4602C20.0267 19.077 20.4859 19.5362 20.4859 20.1026C20.4859 20.6691 20.0267 21.1283 19.4602 21.1283H13.9901C13.4237 21.1283 12.9645 20.6691 12.9645 20.1026Z" fill="#030D45"/>
<path fill-rule="evenodd" clip-rule="evenodd" d="M16.7252 23.8633C16.1587 23.8633 15.6995 23.4041 15.6995 22.8377V17.3676C15.6995 16.8012 16.1587 16.342 16.7252 16.342C17.2916 16.342 17.7508 16.8012 17.7508 17.3676V22.8377C17.7508 23.4041 17.2916 23.8633 16.7252 23.8633Z" fill="#030D45"/>
</svg>
