<svg width="33" height="32" viewBox="0 0 33 32" fill="none" xmlns="http://www.w3.org/2000/svg">
<path fill-rule="evenodd" clip-rule="evenodd" d="M8.70273 4.78439C7.72169 4.78439 6.3414 5.01727 5.42513 5.19923C5.31977 5.22015 5.24178 5.29782 5.22077 5.40275C5.03805 6.31521 4.80421 7.68977 4.80421 8.66675C4.80421 9.64372 5.03805 11.0183 5.22077 11.9307C5.24178 12.0357 5.31977 12.1133 5.42513 12.1343C6.3414 12.3162 7.72169 12.5491 8.70273 12.5491C9.68378 12.5491 11.0641 12.3162 11.9803 12.1343C12.0857 12.1133 12.1637 12.0357 12.1847 11.9307C12.3674 11.0183 12.6013 9.64372 12.6013 8.66675C12.6013 7.68977 12.3674 6.31521 12.1847 5.40275C12.1637 5.29782 12.0857 5.22015 11.9803 5.19923C11.0641 5.01727 9.68378 4.78439 8.70273 4.78439ZM5.00927 3.12247C5.92759 2.9401 7.49098 2.66675 8.70273 2.66675C9.91448 2.66675 11.4779 2.9401 12.3962 3.12247C13.3443 3.31075 14.0811 4.04445 14.2701 4.98861C14.4532 5.90312 14.7277 7.46003 14.7277 8.66675C14.7277 9.87347 14.4532 11.4304 14.2701 12.3449C14.0811 13.289 13.3443 14.0227 12.3962 14.211C11.4779 14.3934 9.91448 14.6667 8.70273 14.6667C7.49098 14.6667 5.92759 14.3934 5.00927 14.211C4.06117 14.0227 3.32442 13.289 3.13535 12.3449C2.95223 11.4304 2.67773 9.87347 2.67773 8.66675C2.67773 7.46003 2.95223 5.90312 3.13535 4.98861C3.32442 4.04445 4.06118 3.31075 5.00927 3.12247Z" fill="#030D45"/>
<path fill-rule="evenodd" clip-rule="evenodd" d="M8.70273 19.4511C7.72169 19.4511 6.3414 19.6839 5.42513 19.8659C5.31977 19.8868 5.24178 19.9645 5.22077 20.0694C5.03805 20.9819 4.80421 22.3564 4.80421 23.3334C4.80421 24.3104 5.03805 25.685 5.22077 26.5974C5.24178 26.7023 5.31977 26.78 5.42513 26.8009C6.3414 26.9829 7.72169 27.2158 8.70273 27.2158C9.68378 27.2158 11.0641 26.9829 11.9803 26.8009C12.0857 26.78 12.1637 26.7023 12.1847 26.5974C12.3674 25.685 12.6013 24.3104 12.6013 23.3334C12.6013 22.3564 12.3674 20.9819 12.1847 20.0694C12.1637 19.9645 12.0857 19.8868 11.9803 19.8659C11.0641 19.6839 9.68378 19.4511 8.70273 19.4511ZM5.00927 17.7891C5.92759 17.6068 7.49098 17.3334 8.70273 17.3334C9.91448 17.3334 11.4779 17.6068 12.3962 17.7891C13.3443 17.9774 14.0811 18.7111 14.2701 19.6553C14.4532 20.5698 14.7277 22.1267 14.7277 23.3334C14.7277 24.5401 14.4532 26.097 14.2701 27.0115C14.0811 27.9557 13.3443 28.6894 12.3962 28.8777C11.4779 29.0601 9.91448 29.3334 8.70273 29.3334C7.49098 29.3334 5.92759 29.0601 5.00927 28.8777C4.06117 28.6894 3.32442 27.9557 3.13535 27.0115C2.95223 26.097 2.67773 24.5401 2.67773 23.3334C2.67773 22.1267 2.95223 20.5698 3.13535 19.6553C3.32442 18.7111 4.06118 17.9774 5.00927 17.7891Z" fill="#030D45"/>
<path fill-rule="evenodd" clip-rule="evenodd" d="M23.4305 4.78439C22.4495 4.78439 21.0692 5.01727 20.1529 5.19923C20.0476 5.22015 19.9696 5.29782 19.9485 5.40275C19.7658 6.31521 19.532 7.68977 19.532 8.66675C19.532 9.64372 19.7658 11.0183 19.9485 11.9307C19.9696 12.0357 20.0476 12.1133 20.1529 12.1343C21.0692 12.3162 22.4495 12.5491 23.4305 12.5491C24.4116 12.5491 25.7918 12.3162 26.7081 12.1343C26.8135 12.1133 26.8915 12.0357 26.9125 11.9307C27.0952 11.0183 27.329 9.64372 27.329 8.66675C27.329 7.68977 27.0952 6.31521 26.9125 5.40275C26.8915 5.29782 26.8135 5.22015 26.7081 5.19923C25.7918 5.01727 24.4116 4.78439 23.4305 4.78439ZM19.7371 3.12247C20.6554 2.9401 22.2188 2.66675 23.4305 2.66675C24.6423 2.66675 26.2057 2.9401 27.124 3.12247C28.0721 3.31075 28.8088 4.04445 28.9979 4.98861C29.181 5.90312 29.4555 7.46003 29.4555 8.66675C29.4555 9.87347 29.181 11.4304 28.9979 12.3449C28.8088 13.289 28.0721 14.0227 27.124 14.211C26.2057 14.3934 24.6423 14.6667 23.4305 14.6667C22.2188 14.6667 20.6554 14.3934 19.7371 14.211C18.789 14.0227 18.0522 13.289 17.8631 12.3449C17.68 11.4304 17.4055 9.87347 17.4055 8.66675C17.4055 7.46003 17.68 5.90312 17.8631 4.98861C18.0522 4.04445 18.789 3.31075 19.7371 3.12247Z" fill="#030D45"/>
<path fill-rule="evenodd" clip-rule="evenodd" d="M23.4305 19.4511C22.4495 19.4511 21.0692 19.6839 20.1529 19.8659C20.0476 19.8868 19.9696 19.9645 19.9485 20.0694C19.7658 20.9819 19.532 22.3564 19.532 23.3334C19.532 24.3104 19.7658 25.685 19.9485 26.5974C19.9696 26.7023 20.0476 26.78 20.1529 26.8009C21.0692 26.9829 22.4495 27.2158 23.4305 27.2158C24.4116 27.2158 25.7918 26.9829 26.7081 26.8009C26.8135 26.78 26.8915 26.7023 26.9125 26.5974C27.0952 25.685 27.329 24.3104 27.329 23.3334C27.329 22.3564 27.0952 20.9819 26.9125 20.0694C26.8915 19.9645 26.8135 19.8868 26.7081 19.8659C25.7918 19.6839 24.4116 19.4511 23.4305 19.4511ZM19.7371 17.7891C20.6554 17.6068 22.2188 17.3334 23.4305 17.3334C24.6423 17.3334 26.2057 17.6068 27.124 17.7891C28.0721 17.9774 28.8088 18.7111 28.9979 19.6553C29.181 20.5698 29.4555 22.1267 29.4555 23.3334C29.4555 24.5401 29.181 26.097 28.9979 27.0115C28.8088 27.9557 28.0721 28.6894 27.124 28.8777C26.2057 29.0601 24.6423 29.3334 23.4305 29.3334C22.2188 29.3334 20.6554 29.0601 19.7371 28.8777C18.789 28.6894 18.0522 27.9557 17.8631 27.0115C17.68 26.097 17.4055 24.5401 17.4055 23.3334C17.4055 22.1267 17.68 20.5698 17.8631 19.6553C18.0522 18.7111 18.789 17.9774 19.7371 17.7891Z" fill="#030D45"/>
</svg>
