<svg width="33" height="32" viewBox="0 0 33 32" fill="none" xmlns="http://www.w3.org/2000/svg">
<path d="M29.5794 24.479C27.8412 26.0466 25.785 27.224 23.5501 27.9314C21.3152 28.6387 18.9538 28.8596 16.6257 28.579C9.09445 27.779 1.26195 21.879 2.06528 14.379C2.36653 11.079 2.46691 12.279 2.96899 4.67901C2.96899 4.27901 4.07361 4.07902 4.07361 4.07902C4.07361 4.07902 5.8811 3.67901 5.8811 4.67901C5.88003 6.48379 6.18562 8.27575 6.78488 9.97901C7.89569 13.2404 10.0034 16.0739 12.8126 18.0824C15.6218 20.0909 18.9916 21.1737 22.4499 21.179C24.1168 21.2062 25.7776 20.97 27.3703 20.479C27.8936 20.2711 28.475 20.2609 29.0053 20.4502C29.5356 20.6395 29.9782 21.0153 30.2497 21.5069C30.5212 21.9985 30.6029 22.5719 30.4794 23.1193C30.356 23.6667 30.0359 24.1502 29.5794 24.479Z" stroke="black" stroke-width="2" stroke-linecap="round" stroke-linejoin="round"/>
<path d="M6.58398 8.979C8.49133 11.0653 10.9098 12.6229 13.6029 13.4993C16.2959 14.3758 19.1713 14.541 21.9477 13.979C23.6024 13.6686 25.1961 13.0946 26.6673 12.279C27.1293 12.0472 27.656 11.9765 28.163 12.0783C28.6701 12.1801 29.1282 12.4485 29.4638 12.8404C29.7995 13.2323 29.9934 13.7251 30.0143 14.2398C30.0353 14.7545 29.8821 15.2613 29.5794 15.679L28.0731 17.379" stroke="black" stroke-width="2" stroke-linecap="round" stroke-linejoin="round"/>
</svg>
