<svg width="33" height="32" viewBox="0 0 33 32" fill="none" xmlns="http://www.w3.org/2000/svg">
<path d="M8.93705 13.9636H2.0083V26.9636H30.3258V24.4636" stroke="black" stroke-width="2" stroke-linecap="round" stroke-linejoin="round"/>
<path d="M30.3257 16.9636V13.9636H8.63574" stroke="black" stroke-width="2" stroke-linecap="round" stroke-linejoin="round"/>
<path d="M30.3258 13.9637L15.7654 7.06369C13.7707 6.05405 11.49 5.75154 9.29945 6.20601C7.1089 6.66048 5.1393 7.8448 3.7154 9.56369C2.65234 10.7895 2.04903 12.3445 2.0083 13.9637" stroke="black" stroke-width="2" stroke-linecap="round" stroke-linejoin="round"/>
<path d="M10.1421 23.9637C11.9167 23.9637 13.3554 22.531 13.3554 20.7637C13.3554 18.9964 11.9167 17.5637 10.1421 17.5637C8.36738 17.5637 6.92871 18.9964 6.92871 20.7637C6.92871 22.531 8.36738 23.9637 10.1421 23.9637Z" stroke="black" stroke-width="2" stroke-linecap="round" stroke-linejoin="round"/>
<path d="M20.0834 22.8636C21.248 22.8636 22.1921 21.9234 22.1921 20.7636C22.1921 19.6038 21.248 18.6636 20.0834 18.6636C18.9187 18.6636 17.9746 19.6038 17.9746 20.7636C17.9746 21.9234 18.9187 22.8636 20.0834 22.8636Z" stroke="black" stroke-width="2" stroke-miterlimit="10"/>
<path d="M30.3259 24.4636C29.7799 24.5527 29.2209 24.5224 28.6878 24.375C28.1547 24.2275 27.6601 23.9664 27.2385 23.6097C26.8168 23.2529 26.478 22.8092 26.2457 22.3091C26.0134 21.809 25.8931 21.2646 25.8931 20.7136C25.8931 20.1626 26.0134 19.6182 26.2457 19.1181C26.478 18.618 26.8168 18.1742 27.2385 17.8175C27.6601 17.4608 28.1547 17.1996 28.6878 17.0522C29.2209 16.9047 29.7799 16.8745 30.3259 16.9636" stroke="black" stroke-width="2" stroke-linecap="round" stroke-linejoin="round"/>
</svg>
