<svg width="33" height="32" viewBox="0 0 33 32" fill="none" xmlns="http://www.w3.org/2000/svg">
<path d="M29.2212 17.4001C28.8362 20.7995 27.179 23.9295 24.5799 26.1662C21.9807 28.4029 18.6305 29.5821 15.1973 29.4685C11.764 29.355 8.49984 27.9571 6.05543 25.5536C3.61102 23.15 2.16594 19.9174 2.0083 16.5001C2.02534 15.7963 2.09246 15.0945 2.20915 14.4001C2.27211 15.4026 2.67762 16.3535 3.35829 17.0948C4.03897 17.836 4.95381 18.323 5.95087 18.4749C6.94792 18.6267 7.96713 18.4343 8.83917 17.9295C9.7112 17.4247 10.3836 16.638 10.7446 15.7001C10.8562 15.4819 10.9244 15.2442 10.9454 15.0001C11.2563 13.8951 11.9469 12.9338 12.8967 12.2839C13.8465 11.634 14.9952 11.3366 16.1425 11.4438C17.2899 11.5509 18.3631 12.0556 19.175 12.87C19.9869 13.6844 20.4861 14.7568 20.5854 15.9001V16.8001C20.7106 17.8693 21.2339 18.8528 22.052 19.5564C22.87 20.26 23.9233 20.6324 25.0037 20.6001C25.964 20.6097 26.8999 20.3002 27.6638 19.7207C28.4276 19.1411 28.9756 18.3246 29.2212 17.4001Z" stroke="black" stroke-width="2" stroke-linecap="round" stroke-linejoin="round"/>
<path d="M20.5853 16.5001V16.8001C20.5334 18.0647 19.9922 19.2603 19.075 20.1364C18.1578 21.0125 16.9358 21.5012 15.6649 21.5001C14.3333 21.5001 13.0562 20.9733 12.1146 20.0357C11.173 19.098 10.644 17.8262 10.644 16.5001C10.644 16.2001 10.7445 16.0001 10.7445 15.7001C10.8561 15.4819 10.9243 15.2442 10.9453 15.0001C11.2562 13.8951 11.9468 12.9338 12.8966 12.2839C13.8464 11.634 14.9951 11.3366 16.1424 11.4438C17.2898 11.5509 18.363 12.0556 19.1749 12.87C19.9868 13.6844 20.486 14.7568 20.5853 15.9001V16.5001Z" stroke="black" stroke-width="2" stroke-linecap="round" stroke-linejoin="round"/>
<path d="M29.2213 16.5V17.4C28.9757 18.3245 28.4277 19.141 27.6638 19.7206C26.9 20.3001 25.964 20.6096 25.0038 20.6C23.9234 20.6323 22.8701 20.2599 22.052 19.5563C21.234 18.8527 20.7107 17.8692 20.5855 16.8V15.9C20.4862 14.7567 19.987 13.6843 19.1751 12.8699C18.3632 12.0555 17.29 11.5508 16.1426 11.4436C14.9953 11.3365 13.8466 11.6338 12.8968 12.2838C11.947 12.9337 11.2564 13.895 10.9455 15C10.845 15.2 10.8451 15.5 10.7446 15.7C10.3837 16.6379 9.71129 17.4246 8.83925 17.9294C7.96721 18.4342 6.948 18.6266 5.95095 18.4748C4.9539 18.3229 4.03905 17.8359 3.35838 17.0947C2.6777 16.3534 2.27219 15.4025 2.20923 14.4C2.31773 13.6546 2.48562 12.9189 2.71131 12.2C3.64749 9.51913 5.39666 7.19401 7.71716 5.54594C10.0377 3.89788 12.8149 3.00828 15.6651 3.00002C18.9509 2.99504 22.1266 4.17866 24.6017 6.3308C27.0768 8.48293 28.6828 11.457 29.1209 14.7C29.2042 15.2962 29.2378 15.8983 29.2213 16.5Z" stroke="black" stroke-width="2" stroke-linecap="round" stroke-linejoin="round"/>
<path d="M6.92871 14.2L8.13372 12.8" stroke="black" stroke-width="2" stroke-linecap="round" stroke-linejoin="round"/>
<path d="M11.7486 9.90005L10.3428 8.80005" stroke="black" stroke-width="2" stroke-linecap="round" stroke-linejoin="round"/>
<path d="M22.7945 10.2001L21.3887 9.1001" stroke="black" stroke-width="2" stroke-linecap="round" stroke-linejoin="round"/>
<path d="M15.7654 8.09995L16.8699 6.69995" stroke="black" stroke-width="2" stroke-linecap="round" stroke-linejoin="round"/>
<path d="M24.4011 15.2L25.6061 13.8" stroke="black" stroke-width="2" stroke-linecap="round" stroke-linejoin="round"/>
</svg>
