<svg width="33" height="32" viewBox="0 0 33 32" fill="none" xmlns="http://www.w3.org/2000/svg">
<path d="M17.0929 10.8C19.4898 10.8 21.7885 11.7483 23.4834 13.4361C25.1782 15.1239 26.1304 17.4131 26.1304 19.8V28.8H8.05542V19.8C8.05542 17.4131 9.00753 15.1239 10.7024 13.4361C12.3972 11.7483 14.696 10.8 17.0929 10.8Z" stroke="black" stroke-width="2" stroke-linecap="round" stroke-linejoin="round"/>
<path d="M17.093 7.10001V3" stroke="black" stroke-width="2" stroke-linecap="round" stroke-linejoin="round"/>
<path d="M2.7334 3H31.4526" stroke="black" stroke-width="2" stroke-linecap="round" stroke-linejoin="round"/>
<path d="M17.0929 25.1999C20.0877 25.1999 22.5154 22.7822 22.5154 19.7999C22.5154 16.8176 20.0877 14.3999 17.0929 14.3999C14.0982 14.3999 11.6704 16.8176 11.6704 19.7999C11.6704 22.7822 14.0982 25.1999 17.0929 25.1999Z" stroke="black" stroke-width="2" stroke-linecap="round" stroke-linejoin="round"/>
<path d="M17.093 19.8V17.3" stroke="black" stroke-width="2" stroke-linecap="round" stroke-linejoin="round"/>
</svg>
