<svg width="32" height="32" viewBox="0 0 32 32" fill="none" xmlns="http://www.w3.org/2000/svg">
<path d="M26.3678 16.9C26.3075 19.5916 25.2347 22.1614 23.3636 24.097C21.4924 26.0327 18.9603 27.1918 16.2724 27.3433C13.5844 27.4947 10.9382 26.6273 8.86143 24.9141C6.78469 23.2008 5.43006 20.7677 5.06779 18.1C4.83123 15.9985 5.21686 13.8738 6.1768 11.9895C7.13674 10.1052 8.62878 8.54411 10.4678 7.5C11.1421 7.12269 11.7023 6.57067 12.0894 5.90198C12.4765 5.23328 12.6764 4.47264 12.6678 3.70001V2H18.6678V3.59998C18.6812 4.38174 18.8894 5.14786 19.2735 5.82886C19.6577 6.50985 20.2057 7.08422 20.8678 7.5C22.5421 8.43099 23.9358 9.79439 24.9032 11.4479C25.8707 13.1014 26.3765 14.9843 26.3678 16.9Z" stroke="black" stroke-width="2" stroke-linecap="round" stroke-linejoin="round"/>
<path d="M15.6677 12.7V21.2" stroke="black" stroke-width="2" stroke-linecap="round" stroke-linejoin="round"/>
<path d="M10.3677 12.7C9.27195 15.4273 9.27195 18.4726 10.3677 21.2" stroke="black" stroke-width="2" stroke-linecap="round" stroke-linejoin="round"/>
<path d="M20.9678 12.7C22.0636 15.4273 22.0636 18.4726 20.9678 21.2" stroke="black" stroke-width="2" stroke-linecap="round" stroke-linejoin="round"/>
<path d="M15.668 29.9001V27.6001" stroke="black" stroke-width="2" stroke-linecap="round" stroke-linejoin="round"/>
<path d="M15.668 27.6001L17.868 29.2001" stroke="black" stroke-width="2" stroke-linecap="round" stroke-linejoin="round"/>
<path d="M15.6679 27.6001L13.5679 29.2001" stroke="black" stroke-width="2" stroke-linecap="round" stroke-linejoin="round"/>
</svg>
