<svg width="33" height="32" viewBox="0 0 33 32" fill="none" xmlns="http://www.w3.org/2000/svg">
<path d="M30.3333 4H2.1333V28.34H30.3333V4Z" stroke="black" stroke-width="2" stroke-linecap="round" stroke-linejoin="round"/>
<path d="M8.53329 24.6C10.4111 24.6 11.9333 23.0778 11.9333 21.2C11.9333 19.3223 10.4111 17.8 8.53329 17.8C6.65553 17.8 5.1333 19.3223 5.1333 21.2C5.1333 23.0778 6.65553 24.6 8.53329 24.6Z" stroke="black" stroke-width="2" stroke-linecap="round" stroke-linejoin="round"/>
<path d="M18.6334 24.6C20.5112 24.6 22.0334 23.0778 22.0334 21.2C22.0334 19.3223 20.5112 17.8 18.6334 17.8C16.7557 17.8 15.2334 19.3223 15.2334 21.2C15.2334 23.0778 16.7557 24.6 18.6334 24.6Z" stroke="black" stroke-width="2" stroke-linecap="round" stroke-linejoin="round"/>
<path d="M25.1333 19.2H27.0333" stroke="black" stroke-width="2" stroke-linecap="round" stroke-linejoin="round"/>
<path d="M25.1333 23.2H27.0333" stroke="black" stroke-width="2" stroke-linecap="round" stroke-linejoin="round"/>
<path d="M8.53329 14.6C10.4111 14.6 11.9333 13.0778 11.9333 11.2C11.9333 9.32227 10.4111 7.80005 8.53329 7.80005C6.65553 7.80005 5.1333 9.32227 5.1333 11.2C5.1333 13.0778 6.65553 14.6 8.53329 14.6Z" stroke="black" stroke-width="2" stroke-linecap="round" stroke-linejoin="round"/>
<path d="M18.6334 14.6C20.5112 14.6 22.0334 13.0778 22.0334 11.2C22.0334 9.32227 20.5112 7.80005 18.6334 7.80005C16.7557 7.80005 15.2334 9.32227 15.2334 11.2C15.2334 13.0778 16.7557 14.6 18.6334 14.6Z" stroke="black" stroke-width="2" stroke-linecap="round" stroke-linejoin="round"/>
<path d="M25.1333 9.19995H27.0333" stroke="black" stroke-width="2" stroke-linecap="round" stroke-linejoin="round"/>
<path d="M25.1333 13.2H27.0333" stroke="black" stroke-width="2" stroke-linecap="round" stroke-linejoin="round"/>
</svg>
