<svg width="33" height="32" viewBox="0 0 33 32" fill="none" xmlns="http://www.w3.org/2000/svg">
<path d="M13.0541 9.10001L16.0666 4L28.0162 24.7C19.9829 29.2 12.0499 29.2 4.0166 24.7L9.84077 14.7" stroke="black" stroke-width="2" stroke-linejoin="round"/>
<path d="M5.72363 21.2C8.81258 23.1142 12.3781 24.1288 16.0163 24.1288C19.6546 24.1288 23.2201 23.1142 26.3091 21.2" stroke="black" stroke-width="2" stroke-linejoin="round"/>
<path d="M17.9746 20.4999C19.0283 20.4999 19.8825 19.6493 19.8825 18.6C19.8825 17.5506 19.0283 16.7 17.9746 16.7C16.9209 16.7 16.0667 17.5506 16.0667 18.6C16.0667 19.6493 16.9209 20.4999 17.9746 20.4999Z" stroke="black" stroke-width="2" stroke-linejoin="round"/>
<path d="M15.1629 12.1001C15.1629 12.9753 14.8138 13.8147 14.1923 14.4335C13.5709 15.0524 12.728 15.4001 11.8492 15.4001C11.1255 15.3667 10.4274 15.1234 9.84082 14.7001L13.0542 9.1001C13.6565 9.34763 14.1751 9.76162 14.5487 10.2932C14.9224 10.8248 15.1355 11.4518 15.1629 12.1001Z" stroke="black" stroke-width="2" stroke-linejoin="round"/>
</svg>
